<svg width="27" height="20" viewBox="0 0 27 20" fill="none" xmlns="http://www.w3.org/2000/svg">
<path d="M5.25412 19.3706L7.76143 17.5412C8.61311 16.9222 8.9537 15.8032 8.57297 14.8136L7.54949 12.1592C7.40434 11.7976 7.55282 11.394 7.887 11.2007L12.1776 8.43717L16.764 6.07559C17.0981 5.88271 17.5222 5.95602 17.7628 6.26254L19.5499 8.47612C20.2166 9.30024 21.3559 9.56517 22.3178 9.13709L25.1558 7.88039C26.4316 7.33471 26.9304 5.77399 26.2416 4.58085L24.7536 2.00366C24.423 1.43095 23.8436 1.03366 23.2414 0.872285C18.3905 -0.14511 13.2511 0.817655 9.19437 3.15978C5.13768 5.50192 1.74428 9.43376 0.189837 14.1811C-0.019258 14.8109 0.0832303 15.4838 0.413882 16.0565L1.90145 18.6336C2.5325 19.892 4.14364 20.2026 5.25412 19.3706Z" fill="#81D728"/>
</svg>
