<svg width="19" height="22" viewBox="0 0 19 22" fill="none" xmlns="http://www.w3.org/2000/svg">
<path d="M11.875 0H2.375C1.06875 0 0 0.99 0 2.2V19.8C0 21.01 1.06875 22 2.375 22H16.625C17.9312 22 19 21.01 19 19.8V6.6L11.875 0ZM9.5 8.8C10.8062 8.8 11.875 9.79 11.875 11C11.875 12.21 10.8062 13.2 9.5 13.2C8.19375 13.2 7.125 12.21 7.125 11C7.125 9.79 8.19375 8.8 9.5 8.8ZM14.25 17.6H4.75V16.973C4.75 16.082 5.32 15.29 6.19875 14.938C7.20813 14.531 8.32438 14.3 9.5 14.3C10.6756 14.3 11.7919 14.531 12.8012 14.938C13.68 15.29 14.25 16.082 14.25 16.973V17.6Z" fill="#3B9EF7"/>
</svg>
