<?xml version="1.0" encoding="UTF-8"?>
<svg width="700pt" height="700pt" version="1.1" viewBox="0 0 700 700" xmlns="http://www.w3.org/2000/svg">
 <path d="m192.5 157.5c0-32.488 12.906-63.648 35.879-86.621s54.133-35.879 86.621-35.879 63.648 12.906 86.621 35.879 35.879 54.133 35.879 86.621-12.906 63.648-35.879 86.621-54.133 35.879-86.621 35.879-63.648-12.906-86.621-35.879-35.879-54.133-35.879-86.621zm249.73 176.4c-22.941-12.438-48.633-18.938-74.727-18.898h-105c-41.773 0-81.832 16.594-111.37 46.129-29.535 29.539-46.129 69.598-46.129 111.37v35c0 4.6406 1.8438 9.0938 5.125 12.375s7.7344 5.125 12.375 5.125h299.43c-26.762-26.207-40.062-63.219-36.109-100.46 3.957-37.246 24.738-70.637 56.41-90.637zm135.27 86.102h-52.5v-52.5c0-6.2539-3.3359-12.031-8.75-15.156s-12.086-3.125-17.5 0-8.75 8.9023-8.75 15.156v52.5h-52.5c-6.2539 0-12.031 3.3359-15.156 8.75s-3.125 12.086 0 17.5 8.9023 8.75 15.156 8.75h52.5v52.5c0 6.2539 3.3359 12.031 8.75 15.156s12.086 3.125 17.5 0 8.75-8.9023 8.75-15.156v-52.5h52.5c6.2539 0 12.031-3.3359 15.156-8.75s3.125-12.086 0-17.5-8.9023-8.75-15.156-8.75z"/>
</svg>
