<svg width="41" height="41" viewBox="0 0 41 41" fill="none" xmlns="http://www.w3.org/2000/svg">
<mask id="mask0_6448_27537" style="mask-type:alpha" maskUnits="userSpaceOnUse" x="0" y="0" width="41" height="41">
<rect width="41" height="41" fill="#D9D9D9"/>
</mask>
<g mask="url(#mask0_6448_27537)">
<path d="M20.4987 39.2918C19.5591 39.2918 18.7551 38.9576 18.0865 38.289C17.4169 37.6194 17.082 36.8147 17.082 35.8752C17.082 34.9356 17.4169 34.131 18.0865 33.4613C18.7551 32.7928 19.5591 32.4585 20.4987 32.4585C21.4383 32.4585 22.2429 32.7928 22.9126 33.4613C23.5811 34.131 23.9154 34.9356 23.9154 35.8752C23.9154 36.8147 23.5811 37.6194 22.9126 38.289C22.2429 38.9576 21.4383 39.2918 20.4987 39.2918ZM10.2487 8.54183C9.30911 8.54183 8.50506 8.207 7.83653 7.53733C7.16686 6.8688 6.83203 6.06475 6.83203 5.12516C6.83203 4.18558 7.16686 3.38095 7.83653 2.71129C8.50506 2.04276 9.30911 1.7085 10.2487 1.7085C11.1883 1.7085 11.9923 2.04276 12.6609 2.71129C13.3305 3.38095 13.6654 4.18558 13.6654 5.12516C13.6654 6.06475 13.3305 6.8688 12.6609 7.53733C11.9923 8.207 11.1883 8.54183 10.2487 8.54183ZM10.2487 18.7918C9.30911 18.7918 8.50506 18.457 7.83653 17.7873C7.16686 17.1188 6.83203 16.3147 6.83203 15.3752C6.83203 14.4356 7.16686 13.631 7.83653 12.9613C8.50506 12.2928 9.30911 11.9585 10.2487 11.9585C11.1883 11.9585 11.9923 12.2928 12.6609 12.9613C13.3305 13.631 13.6654 14.4356 13.6654 15.3752C13.6654 16.3147 13.3305 17.1188 12.6609 17.7873C11.9923 18.457 11.1883 18.7918 10.2487 18.7918ZM10.2487 29.0418C9.30911 29.0418 8.50506 28.7076 7.83653 28.039C7.16686 27.3694 6.83203 26.5647 6.83203 25.6252C6.83203 24.6856 7.16686 23.881 7.83653 23.2113C8.50506 22.5428 9.30911 22.2085 10.2487 22.2085C11.1883 22.2085 11.9923 22.5428 12.6609 23.2113C13.3305 23.881 13.6654 24.6856 13.6654 25.6252C13.6654 26.5647 13.3305 27.3694 12.6609 28.039C11.9923 28.7076 11.1883 29.0418 10.2487 29.0418ZM30.7487 8.54183C29.8091 8.54183 29.0045 8.207 28.3348 7.53733C27.6663 6.8688 27.332 6.06475 27.332 5.12516C27.332 4.18558 27.6663 3.38095 28.3348 2.71129C29.0045 2.04276 29.8091 1.7085 30.7487 1.7085C31.6883 1.7085 32.4929 2.04276 33.1626 2.71129C33.8311 3.38095 34.1654 4.18558 34.1654 5.12516C34.1654 6.06475 33.8311 6.8688 33.1626 7.53733C32.4929 8.207 31.6883 8.54183 30.7487 8.54183ZM20.4987 29.0418C19.5591 29.0418 18.7551 28.7076 18.0865 28.039C17.4169 27.3694 17.082 26.5647 17.082 25.6252C17.082 24.6856 17.4169 23.881 18.0865 23.2113C18.7551 22.5428 19.5591 22.2085 20.4987 22.2085C21.4383 22.2085 22.2429 22.5428 22.9126 23.2113C23.5811 23.881 23.9154 24.6856 23.9154 25.6252C23.9154 26.5647 23.5811 27.3694 22.9126 28.039C22.2429 28.7076 21.4383 29.0418 20.4987 29.0418ZM30.7487 29.0418C29.8091 29.0418 29.0045 28.7076 28.3348 28.039C27.6663 27.3694 27.332 26.5647 27.332 25.6252C27.332 24.6856 27.6663 23.881 28.3348 23.2113C29.0045 22.5428 29.8091 22.2085 30.7487 22.2085C31.6883 22.2085 32.4929 22.5428 33.1626 23.2113C33.8311 23.881 34.1654 24.6856 34.1654 25.6252C34.1654 26.5647 33.8311 27.3694 33.1626 28.039C32.4929 28.7076 31.6883 29.0418 30.7487 29.0418ZM30.7487 18.7918C29.8091 18.7918 29.0045 18.457 28.3348 17.7873C27.6663 17.1188 27.332 16.3147 27.332 15.3752C27.332 14.4356 27.6663 13.631 28.3348 12.9613C29.0045 12.2928 29.8091 11.9585 30.7487 11.9585C31.6883 11.9585 32.4929 12.2928 33.1626 12.9613C33.8311 13.631 34.1654 14.4356 34.1654 15.3752C34.1654 16.3147 33.8311 17.1188 33.1626 17.7873C32.4929 18.457 31.6883 18.7918 30.7487 18.7918ZM20.4987 18.7918C19.5591 18.7918 18.7551 18.457 18.0865 17.7873C17.4169 17.1188 17.082 16.3147 17.082 15.3752C17.082 14.4356 17.4169 13.631 18.0865 12.9613C18.7551 12.2928 19.5591 11.9585 20.4987 11.9585C21.4383 11.9585 22.2429 12.2928 22.9126 12.9613C23.5811 13.631 23.9154 14.4356 23.9154 15.3752C23.9154 16.3147 23.5811 17.1188 22.9126 17.7873C22.2429 18.457 21.4383 18.7918 20.4987 18.7918ZM20.4987 8.54183C19.5591 8.54183 18.7551 8.207 18.0865 7.53733C17.4169 6.8688 17.082 6.06475 17.082 5.12516C17.082 4.18558 17.4169 3.38095 18.0865 2.71129C18.7551 2.04276 19.5591 1.7085 20.4987 1.7085C21.4383 1.7085 22.2429 2.04276 22.9126 2.71129C23.5811 3.38095 23.9154 4.18558 23.9154 5.12516C23.9154 6.06475 23.5811 6.8688 22.9126 7.53733C22.2429 8.207 21.4383 8.54183 20.4987 8.54183Z" fill="#545454"/>
</g>
</svg>
