<svg width="43" height="43" viewBox="0 0 43 43" fill="none" xmlns="http://www.w3.org/2000/svg">
<mask id="mask0_6535_625" style="mask-type:alpha" maskUnits="userSpaceOnUse" x="0" y="0" width="43" height="43">
<rect x="0.5" y="0.5" width="42" height="42" fill="#D9D9D9"/>
</mask>
<g mask="url(#mask0_6535_625)">
<path d="M26.75 18.4657V6.19727H30.25V18.4657H26.75ZM33.75 18.4657V6.19727H37.25V18.4657H33.75ZM35.4125 37.7446C31.65 37.7446 27.9826 36.9045 24.4102 35.2243C20.8368 33.5453 17.6722 31.3253 14.9165 28.5644C12.1597 25.8045 9.943 22.6352 8.2665 19.0563C6.58883 15.4786 5.75 11.8057 5.75 8.03753C5.75 7.51174 5.925 7.07358 6.275 6.72306C6.625 6.37253 7.0625 6.19727 7.5875 6.19727H14.675C15.0833 6.19727 15.4479 6.32871 15.7688 6.59161C16.0896 6.8545 16.2792 7.19042 16.3375 7.59937L17.475 13.7336C17.5333 14.1425 17.5263 14.5147 17.454 14.85C17.3805 15.1865 17.2125 15.4862 16.95 15.7491L12.75 20.0431C13.975 22.1462 15.5063 24.1179 17.3438 25.9582C19.1812 27.7984 21.2083 29.3904 23.425 30.7341L27.5375 26.6154C27.8 26.3525 28.143 26.1551 28.5665 26.023C28.9888 25.8922 29.4042 25.8559 29.8125 25.9144L35.85 27.1412C36.2583 27.2288 36.5938 27.4257 36.8562 27.7318C37.1187 28.0391 37.25 28.3973 37.25 28.8062V35.9044C37.25 36.4302 37.075 36.8683 36.725 37.2188C36.375 37.5694 35.9375 37.7446 35.4125 37.7446Z" fill="#9C9C9C"/>
</g>
</svg>
