<svg width="25" height="25" viewBox="0 0 25 25" fill="none" xmlns="http://www.w3.org/2000/svg">
<mask id="mask0_6412_26812" style="mask-type:alpha" maskUnits="userSpaceOnUse" x="0" y="0" width="25" height="25">
<rect width="25" height="25" fill="#D9D9D9"/>
</mask>
<g mask="url(#mask0_6412_26812)">
<path d="M12.4993 20.8337C11.9264 20.8337 11.4362 20.6298 11.0285 20.2222C10.6202 19.8139 10.416 19.3232 10.416 18.7503C10.416 18.1774 10.6202 17.6868 11.0285 17.2785C11.4362 16.8708 11.9264 16.667 12.4993 16.667C13.0723 16.667 13.5629 16.8708 13.9712 17.2785C14.3789 17.6868 14.5827 18.1774 14.5827 18.7503C14.5827 19.3232 14.3789 19.8139 13.9712 20.2222C13.5629 20.6298 13.0723 20.8337 12.4993 20.8337ZM12.4993 14.5837C11.9264 14.5837 11.4362 14.3795 11.0285 13.9712C10.6202 13.5635 10.416 13.0732 10.416 12.5003C10.416 11.9274 10.6202 11.4368 11.0285 11.0285C11.4362 10.6208 11.9264 10.417 12.4993 10.417C13.0723 10.417 13.5629 10.6208 13.9712 11.0285C14.3789 11.4368 14.5827 11.9274 14.5827 12.5003C14.5827 13.0732 14.3789 13.5635 13.9712 13.9712C13.5629 14.3795 13.0723 14.5837 12.4993 14.5837ZM12.4993 8.33366C11.9264 8.33366 11.4362 8.12949 11.0285 7.72116C10.6202 7.31352 10.416 6.82324 10.416 6.25033C10.416 5.67741 10.6202 5.18713 11.0285 4.77949C11.4362 4.37116 11.9264 4.16699 12.4993 4.16699C13.0723 4.16699 13.5629 4.37116 13.9712 4.77949C14.3789 5.18713 14.5827 5.67741 14.5827 6.25033C14.5827 6.82324 14.3789 7.31352 13.9712 7.72116C13.5629 8.12949 13.0723 8.33366 12.4993 8.33366Z" fill="#1C1B1F"/>
</g>
</svg>
