<svg width="40" height="40" viewBox="0 0 40 40" fill="none" xmlns="http://www.w3.org/2000/svg">
<mask id="mask0_6368_30375" style="mask-type:alpha" maskUnits="userSpaceOnUse" x="0" y="0" width="40" height="40">
<rect width="40" height="40" fill="#D9D9D9"/>
</mask>
<g mask="url(#mask0_6368_30375)">
<path d="M19.9993 33.3332C19.0827 33.3332 18.2982 33.0071 17.646 32.3548C16.9927 31.7015 16.666 30.9165 16.666 29.9998C16.666 29.0832 16.9927 28.2982 17.646 27.6448C18.2982 26.9926 19.0827 26.6665 19.9993 26.6665C20.916 26.6665 21.701 26.9926 22.3543 27.6448C23.0066 28.2982 23.3327 29.0832 23.3327 29.9998C23.3327 30.9165 23.0066 31.7015 22.3543 32.3548C21.701 33.0071 20.916 33.3332 19.9993 33.3332ZM19.9993 23.3332C19.0827 23.3332 18.2982 23.0065 17.646 22.3532C16.9927 21.7009 16.666 20.9165 16.666 19.9998C16.666 19.0832 16.9927 18.2982 17.646 17.6448C18.2982 16.9926 19.0827 16.6665 19.9993 16.6665C20.916 16.6665 21.701 16.9926 22.3543 17.6448C23.0066 18.2982 23.3327 19.0832 23.3327 19.9998C23.3327 20.9165 23.0066 21.7009 22.3543 22.3532C21.701 23.0065 20.916 23.3332 19.9993 23.3332ZM19.9993 13.3332C19.0827 13.3332 18.2982 13.0065 17.646 12.3532C16.9927 11.7009 16.666 10.9165 16.666 9.99984C16.666 9.08317 16.9927 8.29873 17.646 7.6465C18.2982 6.99317 19.0827 6.6665 19.9993 6.6665C20.916 6.6665 21.701 6.99317 22.3543 7.6465C23.0066 8.29873 23.3327 9.08317 23.3327 9.99984C23.3327 10.9165 23.0066 11.7009 22.3543 12.3532C21.701 13.0065 20.916 13.3332 19.9993 13.3332Z" fill="#1C1B1F"/>
</g>
</svg>
