<svg width="30" height="30" viewBox="0 0 30 30" fill="none" xmlns="http://www.w3.org/2000/svg">
<mask id="mask0_6368_29911" style="mask-type:alpha" maskUnits="userSpaceOnUse" x="0" y="0" width="30" height="30">
<rect width="30" height="30" fill="#D9D9D9"/>
</mask>
<g mask="url(#mask0_6368_29911)">
<path d="M22.5 27.1875C21.5417 27.1875 20.7292 26.8542 20.0625 26.1875C19.3958 25.5208 19.0625 24.7083 19.0625 23.75C19.0625 23.6042 19.0729 23.4425 19.0938 23.265C19.1146 23.0883 19.1562 22.9375 19.2188 22.8125L9.96875 17.375C9.63542 17.7083 9.26042 17.9687 8.84375 18.1562C8.42708 18.3438 7.97917 18.4375 7.5 18.4375C6.54167 18.4375 5.72917 18.1042 5.0625 17.4375C4.39583 16.7708 4.0625 15.9583 4.0625 15C4.0625 14.0417 4.39583 13.2292 5.0625 12.5625C5.72917 11.8958 6.54167 11.5625 7.5 11.5625C7.97917 11.5625 8.42708 11.6562 8.84375 11.8438C9.26042 12.0313 9.63542 12.2917 9.96875 12.625L19.2188 7.1875C19.1562 7.0625 19.1146 6.91125 19.0938 6.73375C19.0729 6.55708 19.0625 6.39583 19.0625 6.25C19.0625 5.29167 19.3958 4.47917 20.0625 3.8125C20.7292 3.14583 21.5417 2.8125 22.5 2.8125C23.4583 2.8125 24.2708 3.14583 24.9375 3.8125C25.6042 4.47917 25.9375 5.29167 25.9375 6.25C25.9375 7.20833 25.6042 8.02083 24.9375 8.6875C24.2708 9.35417 23.4583 9.6875 22.5 9.6875C22.0208 9.6875 21.5729 9.59375 21.1562 9.40625C20.7396 9.21875 20.3646 8.95833 20.0312 8.625L10.7812 14.0625C10.8438 14.1875 10.8854 14.3333 10.9063 14.5C10.9271 14.6667 10.9375 14.8333 10.9375 15C10.9375 15.1458 10.9271 15.3071 10.9063 15.4838C10.8854 15.6613 10.8438 15.8125 10.7812 15.9375L20.0312 21.375C20.3646 21.0417 20.7396 20.7812 21.1562 20.5938C21.5729 20.4062 22.0208 20.3125 22.5 20.3125C23.4583 20.3125 24.2708 20.6458 24.9375 21.3125C25.6042 21.9792 25.9375 22.7917 25.9375 23.75C25.9375 24.7083 25.6042 25.5208 24.9375 26.1875C24.2708 26.8542 23.4583 27.1875 22.5 27.1875Z" fill="white"/>
</g>
</svg>
