<svg width="20" height="24" viewBox="0 0 20 24" fill="none" xmlns="http://www.w3.org/2000/svg">
<path d="M19.9986 12.0012C19.9993 11.8057 19.9504 11.6132 19.8565 11.442C19.7627 11.2708 19.627 11.1264 19.4623 11.0225L16.7424 9.30401L19.4623 7.58549C19.6269 7.48143 19.7626 7.33705 19.8566 7.16588C19.9507 6.99472 20 6.80235 20 6.60678C20 6.41122 19.9507 6.21885 19.8566 6.04768C19.7626 5.87651 19.6269 5.73214 19.4623 5.62807L11.019 0.295261C10.7137 0.102343 10.3605 0 10 0C9.63947 0 9.28626 0.102343 8.98098 0.295261L0.537714 5.62807C0.373094 5.73214 0.237413 5.87651 0.143371 6.04768C0.0493293 6.21885 0 6.41122 0 6.60678C0 6.80235 0.0493293 6.99472 0.143371 7.16588C0.237413 7.33705 0.373094 7.48143 0.537714 7.58549L3.25764 9.30401L0.537714 11.0225C0.373094 11.1266 0.237413 11.271 0.143371 11.4421C0.0493293 11.6133 0 11.8057 0 12.0012C0 12.1968 0.0493293 12.3892 0.143371 12.5603C0.237413 12.7315 0.373094 12.8759 0.537714 12.98L3.25764 14.6985L0.537714 16.417C0.373094 16.5211 0.237413 16.6654 0.143371 16.8366C0.0493293 17.0078 0 17.2001 0 17.3957C0 17.5913 0.0493293 17.7836 0.143371 17.9548C0.237413 18.126 0.373094 18.2703 0.537714 18.3744L8.98098 23.7072C9.28682 23.8986 9.63982 24 10 24C10.3602 24 10.7132 23.8986 11.019 23.7072L19.4623 18.3744C19.6269 18.2703 19.7626 18.126 19.8566 17.9548C19.9507 17.7836 20 17.5913 20 17.3957C20 17.2001 19.9507 17.0078 19.8566 16.8366C19.7626 16.6654 19.6269 16.5211 19.4623 16.417L16.7424 14.6985L19.4623 12.98C19.627 12.8761 19.7627 12.7317 19.8565 12.5605C19.9504 12.3892 19.9993 12.1968 19.9986 12.0012ZM0.943788 6.93045C0.890022 6.89552 0.845815 6.84759 0.815205 6.79105C0.784595 6.73451 0.768558 6.67116 0.768558 6.60678C0.768558 6.5424 0.784595 6.47905 0.815205 6.42251C0.845815 6.36597 0.890022 6.31805 0.943788 6.28311L9.38706 0.950303C9.57034 0.833311 9.78293 0.771188 10 0.771188C10.2171 0.771188 10.4297 0.833311 10.6129 0.950303L19.0562 6.28311C19.11 6.31805 19.1542 6.36597 19.1848 6.42251C19.2154 6.47905 19.2314 6.5424 19.2314 6.60678C19.2314 6.67116 19.2154 6.73451 19.1848 6.79105C19.1542 6.84759 19.11 6.89552 19.0562 6.93045L16.0222 8.84934L15.3019 9.30401L11.7469 11.5466L11.0267 12.0012L10.6129 12.2633C10.4297 12.3803 10.2171 12.4424 10 12.4424C9.78293 12.4424 9.57034 12.3803 9.38706 12.2633L8.97332 12.0012L8.25312 11.5466L4.69805 9.30401L3.97785 8.84934L0.943788 6.93045ZM19.0562 17.072C19.11 17.107 19.1542 17.1549 19.1848 17.2114C19.2154 17.268 19.2314 17.3313 19.2314 17.3957C19.2314 17.4601 19.2154 17.5234 19.1848 17.58C19.1542 17.6365 19.11 17.6844 19.0562 17.7194L10.6129 23.0522C10.4297 23.1692 10.2171 23.2313 10 23.2313C9.78293 23.2313 9.57034 23.1692 9.38706 23.0522L0.943788 17.7194C0.890022 17.6844 0.845815 17.6365 0.815205 17.58C0.784595 17.5234 0.768558 17.4601 0.768558 17.3957C0.768558 17.3313 0.784595 17.268 0.815205 17.2114C0.845815 17.1549 0.890022 17.107 0.943788 17.072L3.97785 15.1532L8.98098 18.3128C9.28682 18.5041 9.63982 18.6055 10 18.6055C10.3602 18.6055 10.7132 18.5041 11.019 18.3128L16.0222 15.1532L19.0562 17.072ZM19.0562 12.3249L16.0222 14.2438L15.3019 14.6985L10.6129 17.6577C10.4297 17.7747 10.2171 17.8368 10 17.8368C9.78293 17.8368 9.57034 17.7747 9.38706 17.6577L4.69805 14.6985L3.97785 14.2438L0.943788 12.3249C0.890022 12.29 0.845815 12.2421 0.815205 12.1855C0.784595 12.129 0.768558 12.0656 0.768558 12.0012C0.768558 11.9369 0.784595 11.8735 0.815205 11.817C0.845815 11.7604 0.890022 11.7125 0.943788 11.6776L3.97785 9.75869L7.52525 12.0012L8.25312 12.4559L8.98098 12.9183C9.28682 13.1097 9.63982 13.2111 10 13.2111C10.3602 13.2111 10.7132 13.1097 11.019 12.9183L11.7469 12.4559L12.4748 12.0012L16.0222 9.75869L19.0562 11.6776C19.11 11.7125 19.1542 11.7604 19.1848 11.817C19.2154 11.8735 19.2314 11.9369 19.2314 12.0012C19.2314 12.0656 19.2154 12.129 19.1848 12.1855C19.1542 12.2421 19.11 12.29 19.0562 12.3249Z" fill="#3B9EF7"/>
</svg>
