<svg width="43" height="42" viewBox="0 0 43 42" fill="none" xmlns="http://www.w3.org/2000/svg">
<mask id="mask0_6535_924" style="mask-type:alpha" maskUnits="userSpaceOnUse" x="0" y="0" width="43" height="42">
<rect x="0.5" width="42" height="42" fill="#D9D9D9"/>
</mask>
<g mask="url(#mask0_6535_924)">
<path d="M32 17.9659L29.4625 15.5122L32.2625 12.708H23.25V9.20272H32.2625L29.55 6.48614L32 3.94482L39 11.043L32 17.9659ZM35.4125 37.2448C31.65 37.2448 27.9826 36.4047 24.4102 34.7245C20.8368 33.0455 17.6722 30.8255 14.9165 28.0645C12.1597 25.3047 9.943 22.1354 8.2665 18.5565C6.58883 14.9788 5.75 11.3059 5.75 7.53772C5.75 7.01193 5.925 6.57377 6.275 6.22325C6.625 5.87272 7.0625 5.69746 7.5875 5.69746H14.675C15.0833 5.69746 15.4479 5.8289 15.7688 6.0918C16.0896 6.35469 16.2792 6.69061 16.3375 7.09956L17.475 13.2338C17.5333 13.6427 17.5263 14.0149 17.454 14.3502C17.3805 14.6867 17.2125 14.9864 16.95 15.2493L12.75 19.5432C13.975 21.6464 15.5063 23.6181 17.3438 25.4584C19.1812 27.2986 21.2083 28.8906 23.425 30.2343L27.5375 26.1156C27.8 25.8527 28.143 25.6553 28.5665 25.5232C28.9888 25.3924 29.4042 25.3561 29.8125 25.4146L35.85 26.6414C36.2583 26.729 36.5938 26.9259 36.8562 27.232C37.1187 27.5393 37.25 27.8975 37.25 28.3064V35.4046C37.25 35.9304 37.075 36.3685 36.725 36.719C36.375 37.0696 35.9375 37.2448 35.4125 37.2448Z" fill="#9C9C9C"/>
</g>
</svg>
