<svg width="27" height="14" viewBox="0 0 27 14" fill="none" xmlns="http://www.w3.org/2000/svg">
<path d="M20.8125 0.5C17.3925 0.5 14.625 3.40727 14.625 7C14.625 8.57182 15.1538 10.0136 16.0425 11.1364H10.9575C11.8462 10.0136 12.375 8.57182 12.375 7C12.375 3.40727 9.6075 0.5 6.1875 0.5C2.7675 0.5 0 3.40727 0 7C0 10.5927 2.7675 13.5 6.1875 13.5H20.8125C24.2325 13.5 27 10.5927 27 7C27 3.40727 24.2325 0.5 20.8125 0.5ZM6.1875 11.1364C4.01625 11.1364 2.25 9.28091 2.25 7C2.25 4.71909 4.01625 2.86364 6.1875 2.86364C8.35875 2.86364 10.125 4.71909 10.125 7C10.125 9.28091 8.35875 11.1364 6.1875 11.1364ZM20.8125 11.1364C18.6413 11.1364 16.875 9.28091 16.875 7C16.875 4.71909 18.6413 2.86364 20.8125 2.86364C22.9837 2.86364 24.75 4.71909 24.75 7C24.75 9.28091 22.9837 11.1364 20.8125 11.1364Z" fill="#3B9EF7"/>
</svg>
