<svg width="12" height="13" viewBox="0 0 12 13" fill="none" xmlns="http://www.w3.org/2000/svg">
<path d="M11.763 10.5137L9.86932 8.49416C9.72178 8.33735 9.51619 8.25105 9.29078 8.25105C9.05355 8.25105 8.82422 8.34976 8.66229 8.52212L7.63902 9.61325L7.36245 9.44979C6.75372 9.09024 5.92072 8.59708 5.04041 7.65789C4.15688 6.71689 3.69402 5.8265 3.35531 5.17567L3.20399 4.88909L4.22948 3.79652C4.56882 3.43372 4.58026 2.85678 4.25506 2.50949L2.36111 0.491037C2.21368 0.334296 2.00847 0.247559 1.78319 0.247559C1.54565 0.247559 1.31673 0.346634 1.15481 0.519408L0.689772 1.0183L0.646068 1.09439C0.47323 1.33108 0.331514 1.59701 0.225183 1.88685C0.126928 2.1631 0.0653412 2.42564 0.0374416 2.68895C-0.206758 4.85207 0.729213 6.83806 3.26797 9.54384C6.27749 12.7508 8.79195 13.0001 9.491 13.0001C9.61064 13.0001 9.68286 12.9932 9.70349 12.991C9.96172 12.9575 10.209 12.8916 10.4583 12.7883C10.7276 12.6765 10.9763 12.5265 11.1975 12.3417L11.3035 12.253L11.7386 11.7978C12.0774 11.4369 12.0883 10.8606 11.763 10.5137Z" fill="#BDBDBD"/>
<path d="M6.7702 5.82166C7.10569 5.8211 9.78221 5.4207 9.88254 5.40474C9.91439 5.40474 10.0792 5.40075 10.1631 5.3108C10.2158 5.25469 10.2765 5.13071 10.0913 4.93326L9.42745 4.22588L11.8003 1.69731C11.8582 1.63554 11.9267 1.47581 11.7724 1.3119L10.6592 0.125465C10.582 0.0432712 10.5048 0.0010107 10.4286 1.32876e-05C10.3706 -0.000651651 10.315 0.0236555 10.272 0.0693516C10.2618 0.080988 10.2539 0.0911837 10.2482 0.0990891L7.85159 2.65338L7.12756 1.88197C6.97 1.71419 6.86596 1.78836 6.82891 1.82863C6.7467 1.91603 6.74504 2.09804 6.7467 2.13905L6.45391 5.44545C6.45266 5.4623 6.44372 5.61401 6.53799 5.72218C6.57667 5.76754 6.64865 5.82166 6.7702 5.82166Z" fill="#BDBDBD"/>
</svg>
