<svg width="20" height="20" viewBox="0 0 20 20" fill="none" xmlns="http://www.w3.org/2000/svg">
<path d="M13.3448 15.5C13.614 15.5 13.8063 15.6923 13.8833 15.9231L14.191 18C14.2679 18.577 14.7294 19 15.3063 19.077L17.8063 19.3462C18.5756 19.4231 19.2294 18.8462 19.2294 18.077V15.6923C19.2294 15.3077 19.0756 15 18.8063 14.7308C16.3448 12.5 13.0756 11.3462 9.96019 11.3462C6.84481 11.3462 3.57558 12.5 1.11404 14.7308C0.883269 14.9616 0.767884 15.3462 0.767884 15.6923V18.077C0.690961 18.8462 1.34481 19.4616 2.11404 19.3462L4.61404 19.077C5.19096 19 5.6525 18.577 5.72942 18L6.03712 15.9231C6.07558 15.6539 6.30635 15.5 6.57558 15.5C6.57558 15.5 9.80634 15.2308 13.3448 15.5Z" fill="#FF3232"/>
<path d="M15.2683 4.8464C15.4606 4.65409 15.8068 4.80794 15.8068 5.07717V7.65409C15.8068 7.92332 15.9991 8.11563 16.2683 8.11563H17.2299C17.4991 8.11563 17.6914 7.92332 17.6914 7.65409L17.7299 1.46178C17.7299 1.19255 17.5376 1.00024 17.2683 1.00024H11.1145C10.8453 1.00024 10.6529 1.19255 10.6529 1.46178V2.42332C10.6529 2.69255 10.8453 2.88486 11.1145 2.88486H13.6914C13.9606 2.88486 14.1145 3.23101 13.9222 3.42332L10.3068 7.0387C10.1914 7.15409 9.96064 7.15409 9.80679 7.0387L3.88371 1.15409C3.69141 0.961783 3.38371 0.961783 3.19141 1.15409L2.46064 1.8464C2.26833 2.03871 2.26833 2.3464 2.46064 2.57717L9.69141 9.8464C9.88371 10.0772 10.1914 10.0772 10.4222 9.8464L15.2683 4.8464Z" fill="#FF3232"/>
</svg>
