<svg width="13" height="14" viewBox="0 0 13 14" fill="none" xmlns="http://www.w3.org/2000/svg">
<g clip-path="url(#clip0_6254_26754)">
<path d="M12.6437 11.3219L10.6255 9.14727C10.4684 8.9783 10.2491 8.88545 10.0088 8.88545C9.75577 8.88545 9.51155 8.99152 9.33904 9.17734L8.2483 10.3524L7.9531 10.1761C7.30437 9.78848 6.41642 9.25791 5.47819 8.24613C4.53627 7.23313 4.04302 6.27425 3.68232 5.57314L3.521 5.2646L4.61383 4.08786C4.9754 3.69753 4.98779 3.07604 4.64124 2.70193L2.62253 0.528209C2.46519 0.359356 2.24649 0.266113 2.00651 0.266113C1.75327 0.266113 1.5092 0.372699 1.3368 0.559067L0.840804 1.09605L0.794059 1.17804C0.609819 1.43293 0.458728 1.71951 0.345465 2.03147C0.240572 2.32915 0.17515 2.61183 0.145327 2.89522C-0.114751 5.22512 0.882615 7.36361 3.58883 10.2775C6.79667 13.7312 9.47709 14 10.2222 14C10.3494 14 10.4269 13.9926 10.4486 13.99C10.7238 13.9543 10.9872 13.8829 11.2532 13.7719C11.5401 13.6514 11.8052 13.4897 12.0411 13.2911L12.1539 13.1956L12.6176 12.7055C12.9786 12.3162 12.9905 11.6954 12.6437 11.3219Z" fill="#BDBDBD"/>
<path d="M8.2711 6.13417C8.35318 6.2228 8.43593 6.2683 8.51692 6.26925C8.57945 6.26996 8.63848 6.24382 8.68391 6.19466C8.69531 6.18215 8.70321 6.17128 8.70935 6.16254L11.2639 3.4117L12.0358 4.24254C12.2037 4.42336 12.3142 4.34346 12.354 4.30008C12.4416 4.20601 12.4435 4.00996 12.4416 3.96564L12.7539 0.404814C12.7547 0.38663 12.7642 0.223327 12.6641 0.106901C12.6227 0.0578194 12.5463 0 12.4161 0C12.059 0.000236158 9.20604 0.431697 9.09913 0.448936C9.06511 0.448936 8.88935 0.453305 8.79958 0.550091C8.74363 0.610587 8.67864 0.744134 8.87641 0.956716L9.58354 1.71848L7.05484 4.44119C6.99337 4.50782 6.92053 4.67967 7.08448 4.85655L8.2711 6.13417Z" fill="#BDBDBD"/>
</g>
<defs>
<clipPath id="clip0_6254_26754">
<rect width="13" height="14" fill="white"/>
</clipPath>
</defs>
</svg>
