<svg width="20" height="20" viewBox="0 0 20 20" fill="none" xmlns="http://www.w3.org/2000/svg">
<mask id="mask0_6254_25522" style="mask-type:alpha" maskUnits="userSpaceOnUse" x="0" y="0" width="20" height="20">
<rect width="20" height="20" fill="#D9D9D9"/>
</mask>
<g mask="url(#mask0_6254_25522)">
<path d="M1.66797 18.3334V3.33341C1.66797 2.87508 1.8313 2.48258 2.15797 2.15591C2.48408 1.8298 2.8763 1.66675 3.33464 1.66675H16.668C17.1263 1.66675 17.5188 1.8298 17.8455 2.15591C18.1716 2.48258 18.3346 2.87508 18.3346 3.33341V13.3334C18.3346 13.7917 18.1716 14.1842 17.8455 14.5109C17.5188 14.837 17.1263 15.0001 16.668 15.0001H5.0013L1.66797 18.3334ZM3.33464 14.3126L4.3138 13.3334H16.668V3.33341H3.33464V14.3126Z" fill="#00A2DD"/>
</g>
</svg>
