<svg width="23" height="18" viewBox="0 0 23 18" fill="none" xmlns="http://www.w3.org/2000/svg">
<path d="M9.11852 18C14.1534 18 18.236 17.5034 18.236 16.8853C18.236 16.8533 17.7532 16.1658 17.3022 15.529C20.5055 15.4738 23 15.0379 23 14.5059C23 14.4916 17.336 6.3756 15.7764 4.13636C15.6868 4.00723 15.5383 3.92998 15.3832 3.92888C15.2259 3.92888 15.0785 4.00613 14.9878 4.13525L13.0176 6.95058L9.54556 0.260454C9.46037 0.100429 9.29655 0 9.11743 0C8.93722 0 8.7734 0.100429 8.68821 0.260454C6.88285 3.70374 2.19143e-07 16.8335 2.19143e-07 16.8842C-0.00109195 17.5023 4.08035 18 9.11852 18Z" fill="url(#paint0_linear_6254_25521)"/>
<ellipse cx="20.2047" cy="1.65543" rx="1.63825" ry="1.65543" fill="#E8BB1C"/>
<defs>
<linearGradient id="paint0_linear_6254_25521" x1="11.5" y1="0" x2="11.5" y2="18" gradientUnits="userSpaceOnUse">
<stop offset="0.567708" stop-color="#AC5727"/>
<stop offset="1" stop-color="#6FC316"/>
</linearGradient>
</defs>
</svg>
