<svg width="25" height="24" viewBox="0 0 25 24" fill="none" xmlns="http://www.w3.org/2000/svg">
<mask id="mask0_6254_25519" style="mask-type:alpha" maskUnits="userSpaceOnUse" x="0" y="0" width="25" height="24">
<rect width="25" height="24" fill="#D9D9D9"/>
</mask>
<g mask="url(#mask0_6254_25519)">
<path d="M12.5 14.1247C12.2049 14.1247 11.9576 14.0286 11.7583 13.8363C11.5583 13.6447 11.4583 13.407 11.4583 13.1232C11.4583 12.8395 11.5583 12.6014 11.7583 12.4092C11.9576 12.2175 12.2049 12.1217 12.5 12.1217C12.7951 12.1217 13.0427 12.2175 13.2427 12.4092C13.442 12.6014 13.5417 12.8395 13.5417 13.1232C13.5417 13.407 13.442 13.6447 13.2427 13.8363C13.0427 14.0286 12.7951 14.1247 12.5 14.1247ZM8.33333 14.1247C8.03819 14.1247 7.79063 14.0286 7.59062 13.8363C7.39132 13.6447 7.29167 13.407 7.29167 13.1232C7.29167 12.8395 7.39132 12.6014 7.59062 12.4092C7.79063 12.2175 8.03819 12.1217 8.33333 12.1217C8.62847 12.1217 8.87604 12.2175 9.07604 12.4092C9.27535 12.6014 9.375 12.8395 9.375 13.1232C9.375 13.407 9.27535 13.6447 9.07604 13.8363C8.87604 14.0286 8.62847 14.1247 8.33333 14.1247ZM16.6667 14.1247C16.3715 14.1247 16.1243 14.0286 15.925 13.8363C15.725 13.6447 15.625 13.407 15.625 13.1232C15.625 12.8395 15.725 12.6014 15.925 12.4092C16.1243 12.2175 16.3715 12.1217 16.6667 12.1217C16.9618 12.1217 17.209 12.2175 17.4083 12.4092C17.6083 12.6014 17.7083 12.8395 17.7083 13.1232C17.7083 13.407 17.6083 13.6447 17.4083 13.8363C17.209 14.0286 16.9618 14.1247 16.6667 14.1247ZM12.5 18.1307C12.2049 18.1307 11.9576 18.0346 11.7583 17.8423C11.5583 17.6507 11.4583 17.413 11.4583 17.1292C11.4583 16.8455 11.5583 16.6078 11.7583 16.4162C11.9576 16.2239 12.2049 16.1277 12.5 16.1277C12.7951 16.1277 13.0427 16.2239 13.2427 16.4162C13.442 16.6078 13.5417 16.8455 13.5417 17.1292C13.5417 17.413 13.442 17.6507 13.2427 17.8423C13.0427 18.0346 12.7951 18.1307 12.5 18.1307ZM8.33333 18.1307C8.03819 18.1307 7.79063 18.0346 7.59062 17.8423C7.39132 17.6507 7.29167 17.413 7.29167 17.1292C7.29167 16.8455 7.39132 16.6078 7.59062 16.4162C7.79063 16.2239 8.03819 16.1277 8.33333 16.1277C8.62847 16.1277 8.87604 16.2239 9.07604 16.4162C9.27535 16.6078 9.375 16.8455 9.375 17.1292C9.375 17.413 9.27535 17.6507 9.07604 17.8423C8.87604 18.0346 8.62847 18.1307 8.33333 18.1307ZM16.6667 18.1307C16.3715 18.1307 16.1243 18.0346 15.925 17.8423C15.725 17.6507 15.625 17.413 15.625 17.1292C15.625 16.8455 15.725 16.6078 15.925 16.4162C16.1243 16.2239 16.3715 16.1277 16.6667 16.1277C16.9618 16.1277 17.209 16.2239 17.4083 16.4162C17.6083 16.6078 17.7083 16.8455 17.7083 17.1292C17.7083 17.413 17.6083 17.6507 17.4083 17.8423C17.209 18.0346 16.9618 18.1307 16.6667 18.1307ZM5.20833 22.1368C4.63542 22.1368 4.14479 21.9408 3.73646 21.5489C3.32882 21.1563 3.125 20.6846 3.125 20.1338V6.1127C3.125 5.56188 3.32882 5.0905 3.73646 4.69858C4.14479 4.30599 4.63542 4.1097 5.20833 4.1097H6.25V2.10669H8.33333V4.1097H16.6667V2.10669H18.75V4.1097H19.7917C20.3646 4.1097 20.8552 4.30599 21.2635 4.69858C21.6712 5.0905 21.875 5.56188 21.875 6.1127V20.1338C21.875 20.6846 21.6712 21.1563 21.2635 21.5489C20.8552 21.9408 20.3646 22.1368 19.7917 22.1368H5.20833ZM5.20833 20.1338H19.7917V10.1187H5.20833V20.1338Z" fill="#D85D5E" fill-opacity="0.87"/>
</g>
</svg>
