<svg width="43" height="46" viewBox="0 0 43 46" fill="none" xmlns="http://www.w3.org/2000/svg">
<path d="M15.2288 29.734L17.1819 28.1441C17.8452 27.6061 18.1292 26.6592 17.8599 25.8367L17.1358 23.6302C17.0328 23.3297 17.1548 22.9877 17.4141 22.8182L20.7483 20.4056L24.2996 18.3241C24.5587 18.155 24.8808 18.2074 25.0579 18.4596L26.3743 20.2794C26.8654 20.957 27.7293 21.1548 28.4726 20.7747L30.6657 19.6585C31.6512 19.1729 32.0655 17.8518 31.5654 16.865L30.4852 14.7334C30.2451 14.2597 29.8115 13.9386 29.3553 13.8161C25.6747 13.0665 21.7314 13.9855 18.5848 16.0393C15.4382 18.0931 12.7637 21.4672 11.4752 25.4863C11.302 26.0195 11.3658 26.5823 11.6058 27.056L12.6858 29.1875C13.1404 30.2303 14.3634 30.4565 15.2288 29.734Z" fill="#81D728"/>
</svg>
